<?xml version="1.0" standalone="no"?>
<!DOCTYPE svg PUBLIC "-//W3C//DTD SVG 20010904//EN"
 "http://www.w3.org/TR/2001/REC-SVG-20010904/DTD/svg10.dtd">
<svg version="1.0" xmlns="http://www.w3.org/2000/svg"
 width="612.000000pt" height="407.000000pt" viewBox="0 0 612.000000 407.000000"
 preserveAspectRatio="xMidYMid meet">

<g transform="translate(0.000000,407.000000) scale(0.100000,-0.100000)"
fill="#000000" stroke="none">
<path d="M2789 3562 c-99 -52 -150 -154 -129 -261 7 -36 56 -132 178 -343 335
-579 392 -682 392 -705 0 -34 -43 -73 -79 -73 -17 0 -40 10 -54 23 -14 12
-102 157 -196 322 -187 327 -216 364 -304 390 -64 19 -90 19 -155 0 -77 -23
-116 -69 -232 -270 -56 -99 -175 -303 -263 -454 -87 -150 -165 -289 -173 -307
-17 -41 -18 -123 -2 -175 25 -86 115 -156 212 -166 130 -13 191 33 302 227
132 230 133 259 22 451 -80 138 -89 178 -49 210 32 26 83 24 108 -3 11 -13 46
-68 79 -122 100 -171 201 -260 352 -311 175 -59 347 -35 514 72 15 9 29 15 31
13 2 -3 60 -102 128 -220 139 -241 173 -282 257 -306 168 -49 322 66 322 241
0 75 -10 96 -148 327 -96 161 -201 343 -680 1177 -58 101 -117 197 -131 214
-65 78 -204 100 -302 49z"/>
<path d="M856 1151 c-7 -10 -146 -389 -146 -396 0 -3 20 -5 45 -5 42 0 46 2
63 38 l17 37 74 0 74 0 12 -35 c11 -33 15 -35 58 -38 26 -2 47 1 47 5 0 4 -32
97 -72 206 l-72 197 -47 0 c-27 0 -50 -4 -53 -9z m74 -181 c10 -30 10 -44 2
-52 -12 -12 -62 -3 -62 13 0 18 29 79 38 79 5 0 15 -18 22 -40z"/>
<path d="M1280 955 l0 -205 45 0 45 0 0 115 c0 63 3 115 8 115 4 0 40 -52 81
-116 72 -113 74 -115 108 -112 l35 3 0 60 c0 33 0 124 -1 203 l-1 142 -40 0
-40 0 0 -94 c0 -52 -4 -98 -10 -101 -5 -3 -39 39 -75 95 l-65 100 -45 0 -45 0
0 -205z"/>
<path d="M1852 963 c-40 -109 -72 -202 -72 -206 0 -4 21 -7 47 -5 43 3 47 5
58 38 l12 35 74 0 74 0 18 -37 c16 -36 20 -38 63 -38 33 0 45 4 42 13 -3 6
-36 99 -74 204 l-69 193 -50 0 -51 0 -72 -197z m144 11 c8 -20 13 -43 10 -50
-6 -16 -52 -19 -61 -4 -8 13 15 90 27 90 5 0 16 -16 24 -36z"/>
<path d="M2350 954 l0 -205 43 3 42 3 3 113 c2 102 11 135 25 98 3 -8 35 -59
71 -115 63 -96 68 -101 101 -101 l35 0 0 205 0 205 -45 0 -45 0 0 -100 c0 -55
-3 -100 -7 -100 -5 0 -36 45 -71 100 l-64 100 -44 0 -44 0 0 -206z"/>
<path d="M2890 955 l0 -205 85 0 c113 0 174 14 220 52 94 78 99 207 11 294
-51 52 -93 64 -218 64 l-98 0 0 -205z m236 96 c68 -41 67 -149 0 -190 -23 -15
-50 -21 -90 -21 l-56 0 0 115 0 115 58 0 c39 0 67 -6 88 -19z"/>
<path d="M3750 954 l0 -205 43 3 42 3 3 63 c3 61 3 62 32 62 24 0 33 -9 65
-65 l36 -65 49 0 c28 0 50 2 50 4 0 2 -18 37 -41 76 -40 72 -40 72 -21 94 46
51 55 108 24 165 -30 55 -71 71 -184 71 l-98 0 0 -206z m204 100 c38 -37 -1
-84 -69 -84 l-45 0 0 50 0 50 49 0 c32 0 55 -6 65 -16z"/>
<path d="M4372 1133 c-38 -95 -132 -358 -132 -369 0 -10 14 -14 43 -14 42 0
45 2 60 40 l15 40 72 0 72 0 15 -40 c16 -39 17 -40 64 -40 l48 0 -35 98 c-20
53 -53 144 -74 202 l-37 105 -50 3 c-47 3 -51 1 -61 -25z m82 -165 c14 -33 15
-43 4 -49 -10 -7 -54 -3 -65 6 -6 4 30 85 37 85 4 0 15 -19 24 -42z"/>
<path d="M4980 1005 c0 -153 0 -155 -25 -171 -22 -14 -27 -14 -56 0 -41 20
-49 20 -79 -4 l-25 -20 31 -29 c58 -53 153 -49 209 9 l30 31 3 170 3 169 -45
0 -46 0 0 -155z"/>
</g>
</svg>
